<svg width="92.643" height="92.809" viewBox="0 0 9.96 10.004" xmlns="http://www.w3.org/2000/svg"><style>:root{color:#849094}@media (prefers-color-scheme:dark){:root{color:#c0c6c8}}</style><path style="fill:currentColor;fill-opacity:.5" d="M5.053 3.807v8.603l.263-.53V4.446l7.623 7.623V3.465l-.263.53v7.437z" transform="translate(-3.994 -3.465)"/><path style="fill:currentColor" d="M4.523 4.336v8.603l.264-.529V4.973l7.623 7.625V3.994l-.264.53v7.437z" transform="translate(-3.994 -3.465)"/><path style="fill:currentColor;fill-opacity:.5" d="M3.994 4.865v8.604l.264-.53V5.502l7.623 7.625V4.524l-.264.529v7.435z" transform="translate(-3.994 -3.465)"/><path d="M3.465-13.307h.08v-.227h.147c.12 0 .204-.084.204-.205v-.001a.195.195 0 0 0-.204-.203h-.227Zm.206-.566c.091 0 .144.05.144.134 0 .085-.053.134-.144.134h-.127v-.268zm.316.566h.08v-.252h.151l.137.252h.093L4.3-13.57a.182.182 0 0 0 .128-.182c0-.115-.08-.19-.203-.19h-.238Zm.08-.322v-.244h.148c.082 0 .131.045.131.121 0 .079-.046.123-.128.123zm.461.322h.08v-.636h-.08zm.203 0h.074v-.492h.003l.203.492h.067l.204-.492h.002v.492h.074v-.636h-.091l-.221.536h-.003l-.22-.536H4.73zm.751 0h.08v-.636h-.08zm.364 0h.08v-.565h.2v-.071h-.481v.071h.2zm.364 0h.079v-.636h-.08zm.386 0h.079l.235-.636h-.084l-.19.54h-.001l-.19-.54h-.083zm.386 0h.395v-.071h-.315v-.22h.299v-.07h-.3v-.204h.316v-.071h-.395Zm.708.011c.145 0 .235-.072.235-.185 0-.097-.055-.15-.186-.179l-.07-.015c-.083-.018-.121-.05-.121-.103 0-.062.055-.102.14-.103.081 0 .135.039.145.103v.007h.08v-.007c-.007-.104-.098-.176-.223-.176-.13 0-.223.073-.224.178 0 .093.059.15.183.177l.07.015c.088.02.125.05.125.107 0 .066-.058.108-.15.108s-.154-.04-.163-.104l-.001-.006h-.08v.006c.009.11.102.177.24.177z" style="fill:currentColor" transform="rotate(90 -.265 -3.73)"/></svg>